<?xml version="1.0" encoding="utf-8"?>
<!-- Generator: Adobe Illustrator 16.0.0, SVG Export Plug-In . SVG Version: 6.00 Build 0)  -->
<!DOCTYPE svg PUBLIC "-//W3C//DTD SVG 1.1//EN" "http://www.w3.org/Graphics/SVG/1.1/DTD/svg11.dtd">
<svg version="1.1" id="_레이어_2" xmlns="http://www.w3.org/2000/svg" xmlns:xlink="http://www.w3.org/1999/xlink" x="0px"
	 y="0px" width="595.279px" height="590px" viewBox="0 0 595.279 590" enable-background="new 0 0 595.279 590"
	 xml:space="preserve">
<g>
	<g>
		<path fill="#FFFFFF" d="M0,587.67V9.692h23.037V587.67H0z"/>
		<path fill="#FFFFFF" d="M293.402,591H0v-23h293.401L293.402,591L293.402,591z"/>
	</g>
	<rect x="0" fill="#FFFFFF" width="293.401" height="23"/>
</g>
<polygon fill="#FFFFFF" points="595.28,590.5 551.813,590.5 551.813,568.768 573.547,568.768 573.547,547.033 595.28,547.033 "/>
<rect x="401.199" y="568.768" fill="#FFFFFF" width="75.198" height="21.732"/>
<polygon fill="#FFFFFF" points="331.003,590.5 287.535,590.5 287.535,547.033 309.269,547.033 309.269,568.768 331.003,568.768 "/>
<rect x="287.535" y="429.912" fill="#FFFFFF" width="16" height="58.896"/>
<rect x="287.535" y="320.506" fill="#FFFFFF" width="16" height="58.895"/>
<rect x="287.535" y="211.097" fill="#FFFFFF" width="16" height="58.897"/>
<rect x="287.535" y="101.691" fill="#FFFFFF" width="16" height="58.898"/>
<rect x="579.28" y="101.691" fill="#FFFFFF" width="16" height="58.898"/>
<polygon fill="#FFFFFF" points="309.269,43.467 287.535,43.467 287.535,0 331.003,0 331.003,21.733 309.269,21.733 "/>
<rect x="401.199" fill="#FFFFFF" width="75.198" height="21.733"/>
<polygon fill="#FFFFFF" points="595.28,43.467 573.547,43.467 573.547,21.733 551.813,21.733 551.813,0 595.28,0 "/>
<rect x="579.28" y="429.912" fill="#FFFFFF" width="16" height="58.896"/>
<rect x="579.28" y="320.506" fill="#FFFFFF" width="16" height="58.895"/>
<rect x="579.28" y="211.097" fill="#FFFFFF" width="16" height="58.897"/>
</svg>
