<?xml version="1.0" encoding="utf-8"?>
<!-- Generator: Adobe Illustrator 16.0.0, SVG Export Plug-In . SVG Version: 6.00 Build 0)  -->
<!DOCTYPE svg PUBLIC "-//W3C//DTD SVG 1.1//EN" "http://www.w3.org/Graphics/SVG/1.1/DTD/svg11.dtd">
<svg version="1.1" id="_레이어_2" xmlns="http://www.w3.org/2000/svg" xmlns:xlink="http://www.w3.org/1999/xlink" x="0px"
	 y="0px" width="600px" height="600px" viewBox="0 0 600 600" enable-background="new 0 0 600 600" xml:space="preserve">
<g id="work">
	<g>
		<path fill="#FFFFFF" d="M0,0h290.706v27H0V0z"/>
		<path fill="#FFFFFF" d="M600,334.571v252.96h-27.222v-252.96H600z"/>
		<path fill="#FFFFFF" d="M0,579.787V0h25.68v579.545H0V579.787z"/>
		<path fill="#FFFFFF" d="M600,600H0v-27.221h600V600z"/>
		<g>
			<g>
				<path fill="#FFFFFF" d="M593.017,126.507L347.51,379.72L228.865,260.304L474.629,7.092l118.646,119.416L593.017,126.507
					L593.017,126.507z M347.51,353.781l219.57-227.018l-92.451-93.478L255.06,260.304L347.51,353.781z"/>
				<path fill="#FFFFFF" d="M347.51,384.341L224.499,260.304l2.312-2.312L474.629,2.469L597.64,126.507l-2.311,2.312L347.51,384.341
					L347.51,384.341z M233.488,260.047L347.51,374.839L588.654,126.25L474.629,11.714l-241.142,248.59V260.047L233.488,260.047z
					 M347.51,358.147l-97.072-98.101L474.629,28.406l97.073,98.101L347.766,358.147H347.51z M259.425,260.047l88.085,88.855
					L562.458,126.25l-88.086-88.855L259.425,259.79V260.047z"/>
			</g>
			<g>
				<g>
					<polygon fill="#FFFFFF" points="348.537,379.72 190.344,411.306 195.48,390.761 348.537,360.203 					"/>
					<path fill="#FFFFFF" d="M181.869,417.726l8.475-27.221l0.515-0.514l156.908-31.588v26.194l-2.567,0.515L181.87,417.983
						L181.869,417.726L181.869,417.726z M193.939,395.642l-3.596,13.609l150.745-30.303V365.85l-147.149,29.533V395.642z"/>
				</g>
				<g>
					<polygon fill="#FFFFFF" points="190.344,411.306 229.121,260.304 248.639,260.304 210.888,407.197 					"/>
					<path fill="#FFFFFF" d="M181.869,417.726l42.63-157.422h26.194l-41.09,151.774l-27.479,5.647H181.869z M229.378,266.725
						l-36.979,143.813l13.61-2.826l36.21-141.243h-12.841V266.725z"/>
				</g>
			</g>
		</g>
	</g>
</g>
</svg>
