<?xml version="1.0" encoding="UTF-8"?>
<svg id="_레이어_2" data-name="레이어 2" xmlns="http://www.w3.org/2000/svg" viewBox="0 0 21.86 21.85">
  <defs>
    <style>
      .cls-1 {
        fill: #ffffff;
        stroke-width: 0px;
      }
    </style>
  </defs>
  <g id="work">
    <g>
      <path class="cls-1" d="M15.32,1.95c1.27-1.27,3.33-1.27,4.6,0s1.27,3.27.05,4.54c-.02.02-.04.04-.05.06l.71.71c1.66-1.66,1.66-4.35,0-6.01s-4.35-1.66-6.01,0l.71.71Z"/>
      <rect class="cls-1" x="8.99" y="3.53" width="7.08" height="1" transform="translate(.82 10.04) rotate(-45)"/>
      <rect class="cls-1" x="14.29" y="8.84" width="7.08" height="1" transform="translate(-1.38 15.34) rotate(-45)"/>
      <path class="cls-1" d="M6.55,19.9c-1.27,1.27-3.33,1.27-4.6,0s-1.27-3.27-.05-4.54c.02-.02.04-.04.05-.06l-.71-.71c-1.66,1.66-1.66,4.35,0,6.01s4.35,1.66,6.01,0l-.71-.71Z"/>
      <rect class="cls-1" x=".56" y="11.95" width="7.08" height="1" transform="translate(-7.6 6.55) rotate(-45)"/>
      <rect class="cls-1" x="5.86" y="17.25" width="7.08" height="1" transform="translate(-9.8 11.85) rotate(-45)"/>
      <g>
        <path class="cls-1" d="M12.19,13.89c-.15.37-.36.71-.65,1.02-.02.02-.04.04-.05.06l.71.71c.52-.52.85-1.14,1.05-1.79-.19.02-.38.05-.56.05-.16,0-.32-.03-.48-.05Z"/>
        <path class="cls-1" d="M9.97,9.52c.56.14,1.08.41,1.52.85.44.44.72.98.85,1.54.34.04.68.02,1.02-.06-.16-.8-.54-1.56-1.16-2.18-.61-.61-1.37-.99-2.15-1.16-.09.34-.11.68-.07,1.02Z"/>
        <path class="cls-1" d="M7.98,8.61c-.66.19-1.28.53-1.8,1.05l.71.71c.32-.32.69-.56,1.08-.72-.03-.35-.03-.69.01-1.04Z"/>
        <path class="cls-1" d="M9.97,9.52c-.04-.34-.02-.68.07-1.02-.68-.14-1.39-.09-2.06.1-.04.35-.04.69-.01,1.04.64-.26,1.34-.29,2-.13Z"/>
      </g>
      <g>
        <path class="cls-1" d="M11.9,12.33c-.56-.14-1.08-.41-1.52-.85-.44-.44-.72-.98-.85-1.54-.34-.04-.68-.02-1.02.06.16.8.54,1.56,1.16,2.18.61.61,1.37.99,2.15,1.16.09-.34.11-.68.07-1.02Z"/>
        <path class="cls-1" d="M9.67,7.96c.15-.37.36-.71.65-1.02.02-.02.04-.04.05-.06l-.71-.71c-.52.52-.85,1.14-1.05,1.79.35-.04.7-.04,1.05,0Z"/>
        <path class="cls-1" d="M13.88,13.24c.66-.19,1.28-.53,1.8-1.05l-.71-.71c-.32.32-.69.56-1.08.72.03.35.03.69-.01,1.04Z"/>
        <path class="cls-1" d="M13.88,13.24c.04-.35.04-.69.01-1.04-.64.26-1.34.29-2,.13.04.34.02.68-.07,1.02.68.14,1.39.09,2.06-.1Z"/>
      </g>
    </g>
  </g>
</svg>