<?xml version="1.0" encoding="UTF-8"?>
<svg id="_레이어_2" data-name="레이어 2" xmlns="http://www.w3.org/2000/svg" viewBox="0 0 24 23.04">
  <defs>
    <style>
      .cls-1 {
        fill: #ffffff;
        stroke-width: 0px;
      }
    </style>
  </defs>
  <g id="work">
    <g>
      <g>
        <rect class="cls-1" y="21.98" width="24" height="1.06"/>
        <rect class="cls-1" x="22.94" y="16.43" width="1.06" height="6.61"/>
        <rect class="cls-1" x="0" y="16.43" width="1.06" height="6.61"/>
      </g>
      <g>
        <path class="cls-1" d="M1.72,0h2.52c.53,0,.98.1,1.35.29.37.2.64.47.83.81.18.34.28.74.28,1.19s-.09.84-.28,1.18-.46.62-.83.82-.82.3-1.35.3h-1.74v-.91h1.64c.34,0,.62-.06.84-.18.22-.12.38-.28.49-.49.1-.21.15-.44.15-.71s-.05-.52-.15-.72-.27-.36-.49-.48-.5-.17-.84-.17h-1.33v6.15h-1.07V0Z"/>
        <path class="cls-1" d="M10.9,7.07h-1.07V0h1.07v7.07ZM10.37,7.07v-.94h1.69c.53,0,.98-.1,1.33-.3s.62-.5.8-.88c.18-.38.27-.86.27-1.42s-.09-1.02-.26-1.41c-.17-.39-.43-.68-.78-.88s-.78-.3-1.29-.3h-1.79v-.94h1.86c.69,0,1.29.14,1.79.42s.88.69,1.15,1.22.4,1.16.4,1.89-.13,1.37-.4,1.9-.66.94-1.17,1.22-1.12.42-1.83.42h-1.75Z"/>
        <path class="cls-1" d="M18.74,0h4.39v.92h-3.32v2.15h3v.92h-3v3.08h-1.07V0Z"/>
      </g>
      <g>
        <g>
          <rect class="cls-1" x="10.88" y="15.49" width="6.5" height="1.06" transform="translate(-7.19 14.69) rotate(-45)"/>
          <rect class="cls-1" x="9.76" y="12.77" width="1.06" height="6.5" transform="translate(-8.32 11.97) rotate(-45)"/>
        </g>
        <rect class="cls-1" x="11.65" y="9.78" width="1.06" height="7.71"/>
      </g>
    </g>
  </g>
</svg>