<?xml version="1.0" encoding="utf-8"?>
<!-- Generator: Adobe Illustrator 16.0.0, SVG Export Plug-In . SVG Version: 6.00 Build 0)  -->
<!DOCTYPE svg PUBLIC "-//W3C//DTD SVG 1.1//EN" "http://www.w3.org/Graphics/SVG/1.1/DTD/svg11.dtd">
<svg version="1.1" id="_레이어_2" xmlns="http://www.w3.org/2000/svg" xmlns:xlink="http://www.w3.org/1999/xlink" x="0px"
	 y="0px" width="595.279px" height="722px" viewBox="0 0 595.279 722" enable-background="new 0 0 595.279 722"
	 xml:space="preserve">
<g id="work">
	<g>
		<path fill="#FFFFFF" d="M455.474,268.336c-60.905,0-110.691-49.533-110.691-110.691c0-61.16,49.786-110.44,110.691-110.44
			c60.906,0,110.692,49.534,110.692,110.692c0,61.159-49.532,110.692-110.692,110.692V268.336z M455.474,72.477
			c-47.006,0-85.419,38.161-85.419,85.42c0,47.259,38.413,85.42,85.419,85.42c47.007,0,85.421-38.162,85.421-85.42
			C540.895,110.639,502.481,72.477,455.474,72.477z"/>
		<path fill="#FFFFFF" d="M455.474,691.646c-60.905,0-110.691-49.533-110.691-110.691c0-61.16,49.533-110.692,110.691-110.692
			c61.16,0,110.692,49.532,110.692,110.692C566.167,642.112,516.635,691.646,455.474,691.646z M455.474,495.534
			c-47.006,0-85.419,38.16-85.419,85.42c0,47.259,38.413,85.419,85.419,85.419c47.007,0,85.421-38.16,85.421-85.419
			C540.895,533.694,502.481,495.534,455.474,495.534L455.474,495.534z"/>
		<path fill="#FFFFFF" d="M137.803,479.865c-60.906,0-110.692-49.533-110.692-110.692c0-61.158,49.533-110.692,110.692-110.692
			c61.158,0,110.691,49.534,110.691,110.692C248.495,430.332,198.963,479.865,137.803,479.865z M137.803,284.005
			c-47.007,0-85.42,38.161-85.42,85.42c0,47.258,38.413,85.42,85.42,85.42c47.006,0,85.42-38.162,85.42-85.42
			S184.81,284.005,137.803,284.005z"/>
		
			<rect x="202.138" y="248.643" transform="matrix(0.8145 -0.5801 0.5801 0.8145 -96.811 219.7475)" fill="#FFFFFF" width="186.25" height="25.271"/>
		
			<rect x="276.12" y="392.175" transform="matrix(0.5345 -0.8452 0.8452 0.5345 -276.39 470.3214)" fill="#FFFFFF" width="25.274" height="187.779"/>
	</g>
</g>
</svg>
