<?xml version="1.0" encoding="utf-8"?>
<!-- Generator: Adobe Illustrator 16.0.0, SVG Export Plug-In . SVG Version: 6.00 Build 0)  -->
<!DOCTYPE svg PUBLIC "-//W3C//DTD SVG 1.1//EN" "http://www.w3.org/Graphics/SVG/1.1/DTD/svg11.dtd">
<svg version="1.1" id="_레이어_2" xmlns="http://www.w3.org/2000/svg" xmlns:xlink="http://www.w3.org/1999/xlink" x="0px"
	 y="0px" width="595.279px" height="605.594px" viewBox="0 0 595.279 605.594" enable-background="new 0 0 595.279 605.594"
	 xml:space="preserve">
<g id="work">
	<g>
		<path fill="#FFFFFF" d="M269.691,269.69H0V0h269.69L269.691,269.69L269.691,269.69z M24.517,245.172h220.655V24.517H24.517
			V245.172z"/>
		<path fill="#FFFFFF" d="M595.28,269.69H325.591V0H595.28V269.69z M350.107,245.172h220.656V24.517H350.107V245.172
			L350.107,245.172z"/>
		<path fill="#FFFFFF" d="M269.691,605.594H0V335.904h269.69L269.691,605.594L269.691,605.594z M24.517,581.078h220.655V360.422
			H24.517V581.078z"/>
		<path fill="#FFFFFF" d="M595.28,605.594H325.591V335.904H595.28V605.594z M350.107,581.078h220.656V360.422H350.107V581.078
			L350.107,581.078z"/>
	</g>
</g>
</svg>
