<?xml version="1.0" encoding="utf-8"?>
<!-- Generator: Adobe Illustrator 16.0.0, SVG Export Plug-In . SVG Version: 6.00 Build 0)  -->
<!DOCTYPE svg PUBLIC "-//W3C//DTD SVG 1.1//EN" "http://www.w3.org/Graphics/SVG/1.1/DTD/svg11.dtd">
<svg version="1.1" id="_레이어_2" xmlns="http://www.w3.org/2000/svg" xmlns:xlink="http://www.w3.org/1999/xlink" x="0px"
	 y="0px" width="595.279px" height="841.89px" viewBox="0 0 595.279 841.89" enable-background="new 0 0 595.279 841.89"
	 xml:space="preserve">
<g>
	<polygon fill="#FFFFFF" points="401.572,506.873 595.28,695.613 576.655,714.24 382.946,525.498 	"/>
	<path fill="#FFFFFF" d="M238.906,127.651C107.036,127.651,0,234.687,0,366.558s107.036,238.906,238.906,238.906
		c131.871,0,238.907-107.035,238.907-238.906C477.814,234.687,371.026,127.651,238.906,127.651z M241.39,579.14
		c-117.219,1.242-213.575-92.881-214.817-210.099c-1.241-117.218,92.881-213.576,210.1-214.817
		c117.219-1.242,213.575,92.881,214.816,210.099C452.731,481.541,358.609,577.898,241.39,579.14z"/>
</g>
<g>
	
		<line fill="none" stroke="#FFFFFF" stroke-width="20" stroke-miterlimit="10" x1="238.906" y1="267.22" x2="238.906" y2="465.896"/>
	
		<line fill="none" stroke="#FFFFFF" stroke-width="20" stroke-miterlimit="10" x1="139.57" y1="366.558" x2="338.244" y2="366.558"/>
</g>
</svg>
