<?xml version="1.0" encoding="utf-8"?>
<!-- Generator: Adobe Illustrator 16.0.0, SVG Export Plug-In . SVG Version: 6.00 Build 0)  -->
<!DOCTYPE svg PUBLIC "-//W3C//DTD SVG 1.1//EN" "http://www.w3.org/Graphics/SVG/1.1/DTD/svg11.dtd">
<svg version="1.1" id="_레이어_2" xmlns="http://www.w3.org/2000/svg" xmlns:xlink="http://www.w3.org/1999/xlink" x="0px"
	 y="0px" width="595.279px" height="590px" viewBox="0 79.945 595.279 590" enable-background="new 0 79.945 595.279 590"
	 xml:space="preserve">
<g>
	<g>
		<path d="M0,667.614V89.637h23.037v577.977H0z"/>
		<path d="M293.402,670.945H0v-23h293.401V670.945z"/>
	</g>
	<rect x="0" y="79.945" width="293.401" height="23"/>
</g>
<polygon points="595.28,670.445 551.813,670.445 551.813,648.712 573.546,648.712 573.546,626.978 595.28,626.978 "/>
<rect x="401.199" y="648.712" width="75.198" height="21.732"/>
<polygon points="331.002,670.445 287.535,670.445 287.535,626.978 309.269,626.978 309.269,648.712 331.002,648.712 "/>
<rect x="287.535" y="509.856" width="16" height="58.898"/>
<rect x="287.535" y="400.45" width="16" height="58.896"/>
<rect x="287.535" y="291.042" width="16" height="58.898"/>
<rect x="287.535" y="181.636" width="16" height="58.898"/>
<rect x="579.28" y="181.636" width="16" height="58.898"/>
<polygon points="309.269,123.412 287.535,123.412 287.535,79.945 331.002,79.945 331.002,101.678 309.269,101.678 "/>
<rect x="401.199" y="79.945" width="75.198" height="21.733"/>
<polygon points="595.28,123.412 573.546,123.412 573.546,101.678 551.813,101.678 551.813,79.945 595.28,79.945 "/>
<rect x="579.28" y="509.856" width="16" height="58.898"/>
<rect x="579.28" y="400.45" width="16" height="58.896"/>
<rect x="579.28" y="291.042" width="16" height="58.898"/>
</svg>
