<?xml version="1.0" encoding="utf-8"?>
<!-- Generator: Adobe Illustrator 16.0.0, SVG Export Plug-In . SVG Version: 6.00 Build 0)  -->
<!DOCTYPE svg PUBLIC "-//W3C//DTD SVG 1.1//EN" "http://www.w3.org/Graphics/SVG/1.1/DTD/svg11.dtd">
<svg version="1.1" id="_레이어_2" xmlns="http://www.w3.org/2000/svg" xmlns:xlink="http://www.w3.org/1999/xlink" x="0px"
	 y="0px" width="600px" height="600px" viewBox="-2.36 124.914 600 600" enable-background="new -2.36 124.914 600 600"
	 xml:space="preserve">
<g id="work">
	<g>
		<path d="M-2.36,124.914h290.706v27H-2.36V124.914z"/>
		<path d="M597.64,459.485v252.96h-27.222v-252.96H597.64z"/>
		<path d="M-2.36,704.701V124.914h25.68v579.545H-2.36V704.701z"/>
		<path d="M597.64,724.914h-600v-27.221h600V724.914z"/>
		<g>
			<g>
				<path d="M590.657,251.421L345.15,504.634L226.504,385.218l245.765-253.212l118.646,119.416H590.657z M345.15,478.695
					l219.57-227.017L472.269,158.2l-219.57,227.018L345.15,478.695z"/>
				<path d="M345.15,509.255L222.139,385.218l2.311-2.312l247.819-255.523L595.28,251.421l-2.311,2.312L345.15,509.255
					L345.15,509.255z M231.127,384.961L345.15,499.753l241.143-248.589L472.269,136.628l-241.142,248.59V384.961z M345.15,483.062
					l-97.073-98.101L472.269,153.32l97.073,98.101L345.406,483.062H345.15z M257.065,384.961l88.085,88.855l214.948-222.652
					l-88.086-88.855L257.065,384.704V384.961z"/>
			</g>
			<g>
				<g>
					<polygon points="346.177,504.634 187.984,536.22 193.119,515.675 346.177,485.117 					"/>
					<path d="M179.509,542.64l8.475-27.221l0.514-0.514l156.909-31.588v26.195l-2.568,0.514l-163.329,32.871V542.64z
						 M191.578,520.556l-3.595,13.609l150.745-30.303v-13.098l-147.15,29.533V520.556z"/>
				</g>
				<g>
					<polygon points="187.984,536.22 226.761,385.218 246.279,385.218 208.528,532.111 					"/>
					<path d="M179.509,542.64l42.63-157.422h26.194l-41.09,151.774l-27.479,5.648H179.509z M227.018,391.638l-36.98,143.813
						l13.611-2.826l36.21-141.243h-12.841V391.638z"/>
				</g>
			</g>
		</g>
	</g>
</g>
</svg>
