<?xml version="1.0" encoding="utf-8"?>
<!-- Generator: Adobe Illustrator 16.0.0, SVG Export Plug-In . SVG Version: 6.00 Build 0)  -->
<!DOCTYPE svg PUBLIC "-//W3C//DTD SVG 1.1//EN" "http://www.w3.org/Graphics/SVG/1.1/DTD/svg11.dtd">
<svg version="1.1" id="_레이어_2" xmlns="http://www.w3.org/2000/svg" xmlns:xlink="http://www.w3.org/1999/xlink" x="0px"
	 y="0px" width="595.279px" height="841.89px" viewBox="0 0 595.279 841.89" enable-background="new 0 0 595.279 841.89"
	 xml:space="preserve">
<g id="work">
	<g>
		<g>
			<rect x="0" y="680.388" width="595.279" height="26.291"/>
			<rect x="568.989" y="542.73" width="26.291" height="163.949"/>
			<rect x="0" y="542.73" width="26.291" height="163.949"/>
		</g>
		<g>
			<path d="M52,135.21h61.735c12.984,0,24.008,2.472,33.072,7.168c9.064,4.944,15.678,11.617,20.333,20.021
				c4.41,8.404,6.86,18.291,6.86,29.414s-2.205,20.763-6.86,29.167s-11.269,15.325-20.333,20.269
				c-9.064,4.943-20.088,7.415-33.072,7.415H71.109v-22.493h40.177c8.33,0,15.188-1.483,20.578-4.449
				c5.39-2.966,9.309-6.921,12.004-12.112c2.45-5.19,3.675-10.876,3.675-17.549c0-6.674-1.225-12.854-3.675-17.797
				c-2.45-4.943-6.614-8.898-12.004-11.864c-5.39-2.966-12.249-4.202-20.578-4.202H78.703V310.21H52.49v-175H52z"/>
			<path d="M270.357,310.57h-26.54V135.21h26.54V310.57z M257.21,310.57v-23.315h41.918c13.146,0,24.308-2.48,32.988-7.441
				c8.682-4.96,15.378-12.401,19.843-21.827s6.697-21.331,6.697-35.221c0-13.89-2.232-25.3-6.449-34.973
				s-10.665-16.866-19.347-21.827c-8.681-4.961-19.347-7.441-31.996-7.441h-44.397V135.21h46.134
				c17.114,0,31.996,3.473,44.397,10.417c12.402,6.945,21.827,17.114,28.524,30.26c6.696,13.146,9.921,28.772,9.921,46.878
				s-3.225,33.98-9.921,47.126c-6.697,13.146-16.37,23.315-29.021,30.26c-12.649,6.945-27.779,10.417-45.39,10.417h-43.406H257.21z"
				/>
			<path d="M464.815,135.21h108.887v22.819h-82.348v53.327h74.41v22.819h-74.41v76.395h-26.539V135.21z"/>
		</g>
		<g>
			<g>
				
					<rect x="269.842" y="519.574" transform="matrix(-0.7071 0.7071 -0.7071 -0.7071 974.9517 661.5973)" width="161.222" height="26.292"/>
				
					<rect x="241.931" y="451.992" transform="matrix(-0.7071 0.7071 -0.7071 -0.7071 812.0558 728.829)" width="26.292" height="161.222"/>
			</g>
			<rect x="288.959" y="377.787" width="26.291" height="191.234"/>
		</g>
	</g>
</g>
</svg>
