<?xml version="1.0" encoding="UTF-8"?>
<svg id="_레이어_2" data-name="레이어 2" xmlns="http://www.w3.org/2000/svg" viewBox="0 0 24.07 24.07">
  <defs>
    <style>
      .cls-1 {
        fill-rule: evenodd;
      }

      .cls-1, .cls-2 {
        fill: #323232;
        stroke-width: 0px;
      }
    </style>
  </defs>
  <g id="work">
    <g>
      <path class="cls-1" d="M12.03,0C5.39,0,0,5.39,0,12.03s5.39,12.03,12.03,12.03,12.03-5.39,12.03-12.03S18.68,0,12.03,0ZM12.15,23c-6.05.07-11.02-4.79-11.08-10.84C1.01,6.1,5.86,1.14,11.92,1.07c6.05-.07,11.02,4.79,11.08,10.84.07,6.05-4.79,11.02-10.84,11.08Z"/>
      <polygon class="cls-2" points="10.02 19.78 9.39 19.1 17.23 11.56 17.95 12.22 10.02 19.78"/>
      <polygon class="cls-2" points="17.23 12.85 9.34 5.66 10.03 4.97 17.95 12.22 17.23 12.85"/>
      <rect class="cls-2" x="8.96" y="4.98" width="1.06" height="14.81"/>
    </g>
  </g>
</svg>