<?xml version="1.0" encoding="utf-8"?>
<!-- Generator: Adobe Illustrator 16.0.0, SVG Export Plug-In . SVG Version: 6.00 Build 0)  -->
<!DOCTYPE svg PUBLIC "-//W3C//DTD SVG 1.1//EN" "http://www.w3.org/Graphics/SVG/1.1/DTD/svg11.dtd">
<svg version="1.1" id="_레이어_2" xmlns="http://www.w3.org/2000/svg" xmlns:xlink="http://www.w3.org/1999/xlink" x="0px"
	 y="0px" width="595.279px" height="722px" viewBox="0 59.445 595.279 722" enable-background="new 0 59.445 595.279 722"
	 xml:space="preserve">
<g id="work">
	<g>
		<path d="M455.474,321.336c-60.905,0-110.691-49.533-110.691-110.691c0-61.16,49.786-110.44,110.691-110.44
			c60.906,0,110.693,49.534,110.693,110.692c0,61.159-49.533,110.692-110.693,110.692V321.336z M455.474,125.477
			c-47.006,0-85.419,38.161-85.419,85.42s38.413,85.42,85.419,85.42c47.007,0,85.421-38.162,85.421-85.42
			S502.481,125.477,455.474,125.477z"/>
		<path d="M455.474,744.645c-60.905,0-110.691-49.533-110.691-110.691c0-61.16,49.533-110.692,110.691-110.692
			c61.16,0,110.693,49.532,110.693,110.692C566.167,695.112,516.634,744.645,455.474,744.645z M455.474,548.534
			c-47.006,0-85.419,38.16-85.419,85.42c0,47.259,38.413,85.419,85.419,85.419c47.007,0,85.421-38.16,85.421-85.419
			C540.895,586.694,502.481,548.534,455.474,548.534L455.474,548.534z"/>
		<path d="M137.803,532.865c-60.906,0-110.692-49.533-110.692-110.692c0-61.158,49.533-110.692,110.692-110.692
			s110.692,49.534,110.692,110.692C248.495,483.332,198.963,532.865,137.803,532.865z M137.803,337.005
			c-47.006,0-85.419,38.161-85.419,85.42c0,47.258,38.413,85.42,85.419,85.42s85.42-38.162,85.42-85.42
			C223.223,375.167,184.81,337.005,137.803,337.005z"/>
		
			<rect x="202.118" y="301.646" transform="matrix(-0.8145 0.5801 -0.5801 -0.8145 718.0557 398.9894)" width="186.256" height="25.272"/>
		
			<rect x="276.137" y="445.187" transform="matrix(-0.5345 0.8452 -0.8452 -0.5345 898.7318 583.128)" width="25.273" height="187.773"/>
	</g>
</g>
</svg>
