<?xml version="1.0" encoding="UTF-8"?>
<svg id="_레이어_1" data-name=" 레이어 1" xmlns="http://www.w3.org/2000/svg" version="1.1" viewBox="0 0 70.9 70.9">
  <defs>
    <style>
      .cls-1 {
        display: none;
        fill: #fff;
        stroke: #040000;
      }

      .cls-1, .cls-2 {
        stroke-miterlimit: 10;
      }

      .cls-2 {
        fill: #323232;
        stroke: #000032;
        stroke-width: 3px;
      }
    </style>
  </defs>
  <circle class="cls-1" cx="35.2" cy="35.4" r="32.5"/>
  <g>
    <path class="cls-2" d="M60,58l-18.4-26.7-2.1-3-13.2-19.1-1.1-1.6H9.1l3.9,5.7,17.5,25.4,2.1,3,14.1,20.4,1.1,1.6h16.2l-3.9-5.7h0ZM49.7,60.1l-14.6-21.2-2.1-3L16,11.2h7.3l13.7,19.9,2.1,3,17.9,25.9h-7.3Z"/>
    <polygon class="cls-2" points="33 35.8 35.1 38.9 32.6 41.7 13.7 63.7 9 63.7 30.5 38.7 33 35.8"/>
    <polygon class="cls-2" points="62 7.5 41.6 31.3 39.1 34.1 37 31.1 39.5 28.3 53.3 12.2 57.3 7.5 62 7.5"/>
  </g>
</svg>